<svg id="visual" viewBox="0 0 1950 1000" width="1950" height="1000" xmlns="http://www.w3.org/2000/svg" xmlns:xlink="http://www.w3.org/1999/xlink" version="1.1"><rect x="0" y="0" width="1950" height="1000" fill="#001220"></rect><defs><linearGradient id="grad1_0" x1="48.7%" y1="100%" x2="100%" y2="0%"><stop offset="11.000000000000002%" stop-color="#001220" stop-opacity="1"></stop><stop offset="89%" stop-color="#001220" stop-opacity="1"></stop></linearGradient></defs><defs><linearGradient id="grad2_0" x1="0%" y1="100%" x2="51.3%" y2="0%"><stop offset="11.000000000000002%" stop-color="#001220" stop-opacity="1"></stop><stop offset="89%" stop-color="#001220" stop-opacity="1"></stop></linearGradient></defs><g transform="translate(1950, 1000)"><path d="M-300 0C-294.2 -56 -288.3 -111.9 -259.8 -150C-231.3 -188.1 -180.1 -208.3 -133 -230.4C-85.9 -252.4 -43 -276.2 0 -300L0 0Z" fill="#430e92"></path></g><g transform="translate(0, 0)"><path d="M300 0C281.7 46.2 263.5 92.3 240.8 139C218 185.7 190.9 232.9 150 259.8C109.1 286.7 54.6 293.4 0 300L0 0Z" fill="#430e92"></path></g></svg>