 <svg viewBox="0 0 24 24" xmlns="http://www.w3.org/2000/svg" width="80" height="80" fill="none"><style>@keyframes lock{0%{transform:translateY(-2px)}to{transform:translateY(0)}}</style><path fill="#265BFF" d="M15.236 10.811a.736.736 0 01-.736-.736V8.811a2.5 2.5 0 00-5 0v5H8v-5a4 4 0 018 0v1.236a.764.764 0 01-.764.764z" style="animation:lock 1s cubic-bezier(1,-.43,0,1.29) both infinite alternate-reverse"/><path fill="#fff" d="M6.6 13.704a3 3 0 013-3h4.8a3 3 0 013 3v3a3 3 0 01-3 3H9.6a3 3 0 01-3-3v-3z"/><path fill="#0A0A30" d="M9.6 11.454h4.8v-1.5H9.6v1.5zm7.05 2.25v3h1.5v-3h-1.5zm-2.25 5.25H9.6v1.5h4.8v-1.5zm-7.05-2.25v-3h-1.5v3h1.5zm2.25 2.25a2.25 2.25 0 01-2.25-2.25h-1.5a3.75 3.75 0 003.75 3.75v-1.5zm7.05-2.25a2.25 2.25 0 01-2.25 2.25v1.5a3.75 3.75 0 003.75-3.75h-1.5zm-2.25-5.25a2.25 2.25 0 012.25 2.25h1.5a3.75 3.75 0 00-3.75-3.75v1.5zm-4.8-1.5a3.75 3.75 0 00-3.75 3.75h1.5a2.25 2.25 0 012.25-2.25v-1.5zm1.543 5.198a.857.857 0 011.714 0v.104a.857.857 0 11-1.714 0v-.104z"/></svg>