<svg viewBox="0 0 24 24" xmlns="http://www.w3.org/2000/svg" width="80" height="80" fill="none"><style>@keyframes rotate-center{0%{transform:rotate(0)}to{transform:rotate(360deg)}}</style><g style="animation:rotate-center 1.5s ease-in-out infinite both;transform-origin:center center" stroke-width="1.5"><path stroke="#0A0A30" stroke-linecap="round" d="M6.883 11.778a5 5 0 018.473-3.597m1.761 4.131a5 5 0 01-8.473 3.597"/><path fill="#265BFF" stroke="#265BFF" d="M17.078 10.145l-2.308-.347a.066.066 0 01-.018-.005.026.026 0 01-.007-.005.056.056 0 01-.015-.024.056.056 0 01-.002-.03l.003-.007a.069.069 0 01.012-.015l1.995-1.964a.064.064 0 01.015-.012.028.028 0 01.007-.003.056.056 0 01.029.003c.012.004.02.01.024.015a.03.03 0 01.005.007.069.069 0 01.004.019l.313 2.312a.046.046 0 01-.015.042.045.045 0 01-.043.014zm-10.156 3.8l2.308.348.018.005a.03.03 0 01.007.005c.004.003.01.011.015.024a.056.056 0 01.002.029.027.027 0 01-.003.007.065.065 0 01-.012.015l-1.995 1.965a.072.072 0 01-.015.012.03.03 0 01-.007.003.056.056 0 01-.029-.003.057.057 0 01-.024-.016.028.028 0 01-.005-.006.066.066 0 01-.004-.019l-.313-2.312a.046.046 0 01.002-.023.053.053 0 01.013-.02.052.052 0 01.02-.012.046.046 0 01.022-.002z"/></g></svg>